<?xml version="1.0" encoding="utf-8"?>
<!-- Generator: Adobe Illustrator 25.0.1, SVG Export Plug-In . SVG Version: 6.00 Build 0)  -->
<svg version="1.1" xmlns="http://www.w3.org/2000/svg" xmlns:xlink="http://www.w3.org/1999/xlink" x="0px" y="0px"
	 viewBox="0 0 945.22 255.78" style="enable-background:new 0 0 945.22 255.78;" xml:space="preserve">
<style type="text/css">
	.st0{fill:#FECF0C;}
	.st1{fill:#F26B43;}
	.st2{fill:#010101;}
</style>
<g id="Layer_1">
</g>
<g id="Layer_2">
	<g id="Layer_1_1_">
		<g>
			<path class="st0" d="M201.06,210.26l-20.94-21.45l4.27-4.15l20.94,21.45L201.06,210.26z M159.26,122.77
				c0.65,2.08,1.09,4.24,1.32,6.48l55.15-2.28l-46.59-8.27L159.26,122.77z M153.2,111.61c1.45,1.75,2.71,3.65,3.78,5.67l9.51-3.92
				l26.5-44.13L153.2,111.61z M143.14,103.45c2.1,1.1,4.07,2.43,5.87,3.94l40.08-42.7l-41.68,28.46L143.14,103.45z M160.66,135
				c-0.34,4.68-1.65,9.09-3.74,13.03l58.81-15.3L160.66,135z M154.79,132.59L154.79,132.59l0.01,0c0-7.43-3.02-14.17-7.91-19.06
				c-4.88-4.88-11.62-7.9-19.05-7.9v0.01h0h0v-0.01c-4.96,0-9.61,1.34-13.6,3.68c-7.99,4.68-13.36,13.35-13.36,23.28h0.01v0v0h-0.01
				c0,7.43,3.02,14.17,7.91,19.06c4.88,4.88,11.62,7.9,19.05,7.9v-0.01h0h0v0.01c7.43,0,14.17-3.02,19.06-7.91
				c0.22-0.22,0.44-0.45,0.66-0.68l0.6-0.66c4.14-4.74,6.65-10.94,6.65-17.71L154.79,132.59L154.79,132.59z M95.07,129.49
				c0.22-2.31,0.67-4.54,1.34-6.69l-9.58-3.96l-46.88,8.04L95.07,129.49z M96.34,142.15c-0.67-2.21-1.11-4.52-1.3-6.91l-55.48-2.63
				l47.79,12.87L96.34,142.15z M124.85,241.04v-38.72h5.97v38.72H124.85z M130.88,99.83c2.33,0.21,4.59,0.67,6.76,1.34l4.12-9.94
				l-10.88-49.71L130.88,99.83z M118.04,101.17c2.2-0.68,4.5-1.14,6.87-1.35v-58.3l-10.6,48.42l0.03,0.02l-0.05,0.07l-0.3,1.38
				L118.04,101.17z M106.99,107.13c1.33-1.09,2.74-2.08,4.24-2.95c0.43-0.25,0.87-0.5,1.32-0.73l-4.35-10.49L67.81,65.39
				L106.99,107.13z M90.26,113.82l8.43,3.49c1.13-2.15,2.49-4.16,4.05-6L63.91,69.93L90.26,113.82z M84.54,171.49l17.89-17.97
				c-1.47-1.79-2.76-3.73-3.83-5.81l-48.45,20.25l-2.28-5.5l31.62-13.21l-66.75-17.97L0,127.84l12.74-2.18l70.43-12.08l-38.7-64.45
				l-7.01-11.66l11.24,7.67l60.3,41.17L127.89,0l18.9,86.35l61.4-41.93l11.24-7.67l-7.01,11.67l-39.11,65.13l69.63,12.36l12.85,2.28
				l-12.85,3.34l-88.68,23.07l16.28,16.73l-4.27,4.15l-17.24-17.71c-1.74,1.47-3.64,2.76-5.66,3.84l19.98,47.82l-5.5,2.28
				l-19.96-47.78c-2.26,0.72-4.63,1.21-7.08,1.43v18.35h-5.97v-18.35c-2.31-0.21-4.55-0.65-6.7-1.31l-19.87,48.38l-5.5-2.26
				l19.86-48.38c-2.17-1.13-4.19-2.49-6.05-4.05l-17.85,17.94L84.54,171.49z"/>
			<path class="st1" d="M155.1,220.31c-0.94-2.26-1.02-4.88-0.01-7.33l0.02-0.05c1.02-2.45,2.94-4.27,5.22-5.21
				c2.26-0.94,4.88-1.02,7.33-0.01l0.05,0.02c2.45,1.02,4.26,2.94,5.21,5.22c0.94,2.27,1.02,4.91,0,7.36l-0.01,0.03v0.01h0
				c-1.48,3.52-4.79,5.72-8.37,5.91c-0.7,0.04-1.41,0-2.11-0.11c-0.69-0.12-1.37-0.31-2.05-0.59l-0.06-0.02
				C157.86,224.51,156.05,222.59,155.1,220.31 M159.6,214.82L159.6,214.82L159.6,214.82c-0.5,1.21-0.46,2.51,0.01,3.64
				c0.46,1.12,1.36,2.07,2.58,2.58h0l0.03,0.01l0,0l0,0c0.33,0.13,0.67,0.22,1.02,0.29c0.35,0.06,0.7,0.08,1.04,0.06
				c1.78-0.09,3.43-1.18,4.15-2.93l0-0.03l0,0l0,0c0.49-1.22,0.45-2.51-0.01-3.64c-0.47-1.12-1.36-2.06-2.58-2.57v0l-0.03-0.01l0,0
				v0c-1.21-0.49-2.51-0.45-3.64,0.01c-1.12,0.47-2.07,1.36-2.57,2.58v0L159.6,214.82z M214.54,162.47
				c-1.15-0.41-2.46-0.38-3.65,0.18l0,0c-1.71,0.81-2.72,2.52-2.73,4.29c0,0.32,0.04,0.66,0.12,1.03c0.08,0.36,0.19,0.71,0.35,1.03
				v0l0,0c0.57,1.19,1.56,2.04,2.7,2.45c1.15,0.41,2.46,0.38,3.66-0.19v0v0c1.19-0.57,2.03-1.56,2.44-2.7
				c0.41-1.15,0.38-2.46-0.19-3.65h0l0,0l0,0C216.68,163.72,215.69,162.88,214.54,162.47z M208.81,158.25L208.81,158.25
				c2.4-1.14,5.04-1.2,7.36-0.38c2.33,0.83,4.34,2.54,5.48,4.94v0.01l0,0.01l0,0c1.14,2.4,1.2,5.03,0.37,7.35
				c-0.83,2.33-2.54,4.34-4.94,5.48h-0.01h0l-0.01,0c-2.4,1.14-5.04,1.2-7.36,0.38c-2.32-0.83-4.34-2.54-5.48-4.94v-0.01l0,0v0h0
				c-0.32-0.69-0.56-1.37-0.71-2.06c-0.15-0.67-0.22-1.38-0.21-2.1C203.32,163.34,205.35,159.9,208.81,158.25z M44.89,162.65
				c-1.19-0.56-2.5-0.59-3.65-0.18c-1.14,0.41-2.13,1.25-2.7,2.44l0,0l0,0h0c-0.57,1.19-0.59,2.5-0.19,3.65
				c0.41,1.14,1.25,2.13,2.44,2.7v0v0c1.19,0.57,2.5,0.6,3.66,0.19c1.14-0.41,2.13-1.26,2.7-2.45l0,0v0c0.57-1.19,0.6-2.5,0.18-3.65
				C46.93,164.22,46.08,163.23,44.89,162.65L44.89,162.65L44.89,162.65z M46.98,158.25L46.98,158.25L46.98,158.25l0.02,0
				c2.4,1.14,4.11,3.15,4.94,5.48c0.83,2.32,0.76,4.96-0.37,7.36h0v0l0,0v0.01c-1.14,2.4-3.15,4.11-5.48,4.94
				c-2.32,0.82-4.95,0.77-7.35-0.38l-0.01,0h0H38.7c-2.4-1.15-4.11-3.15-4.94-5.48c-0.83-2.32-0.77-4.95,0.37-7.35l0,0l0-0.01v-0.01
				c1.14-2.4,3.15-4.11,5.48-4.94C41.94,157.05,44.58,157.11,46.98,158.25z M84.86,214.05c0.94-2.28,2.76-4.2,5.21-5.23l0,0l0.03,0
				l0.06-0.02l0.01-0.01c2.43-0.98,5.04-0.9,7.28,0.03c2.29,0.95,4.21,2.76,5.23,5.21l0,0.01l0,0.01l0.03,0.06l0.01,0.02
				c0.98,2.43,0.9,5.04-0.04,7.29c-0.94,2.28-2.76,4.21-5.21,5.22v0l-0.02,0.01l-0.06,0.02l-0.01,0.01
				c-2.43,0.98-5.04,0.9-7.29-0.04c-2.28-0.94-4.2-2.76-5.22-5.21l0,0l0-0.02l-0.03-0.06l-0.01-0.01
				C83.85,218.9,83.93,216.3,84.86,214.05z M91.97,213.31L91.97,213.31l-0.03,0.01c-1.22,0.5-2.12,1.45-2.58,2.57
				c-0.47,1.12-0.51,2.42-0.02,3.62l-0.01,0l0.01,0.01l0,0v0.01l0.01,0.02c0.51,1.22,1.45,2.11,2.57,2.58
				c1.12,0.47,2.41,0.51,3.62,0.02l0,0.01l0.01-0.01l0,0l0.01,0l0.02-0.01c1.22-0.5,2.12-1.45,2.58-2.57
				c0.46-1.12,0.51-2.42,0.02-3.62l0-0.01h0v0l-0.01-0.02c-0.51-1.22-1.45-2.11-2.57-2.58c-1.12-0.47-2.41-0.5-3.62-0.02l0-0.01
				L91.97,213.31L91.97,213.31z M209.64,209.07L209.64,209.07L209.64,209.07L209.64,209.07L209.64,209.07
				c-1.32,0-2.51,0.54-3.38,1.4c-0.86,0.86-1.39,2.05-1.39,3.37h0.01v0v0.01h-0.01c0,1.31,0.53,2.5,1.4,3.37
				c0.86,0.86,2.06,1.4,3.37,1.4v-0.01h0h0v0.01c1.3,0,2.5-0.54,3.37-1.41h0.01c0.86-0.86,1.4-2.05,1.4-3.37h-0.01v0v0h0.01
				c0-1.31-0.54-2.51-1.4-3.38C212.14,209.61,210.95,209.07,209.64,209.07z M209.63,204.2L209.63,204.2L209.63,204.2
				c2.67,0.01,5.08,1.08,6.82,2.83c1.74,1.74,2.81,4.14,2.81,6.81h0.01v0v0h-0.01c0,2.66-1.08,5.07-2.82,6.82l0.01,0
				c-1.74,1.74-4.15,2.81-6.82,2.82v0.01h0h0v-0.01c-2.66,0-5.08-1.08-6.82-2.83c-1.74-1.74-2.81-4.14-2.81-6.81h-0.01v-0.01v0H200
				c0-2.66,1.08-5.08,2.83-6.82C204.56,205.29,206.97,204.21,209.63,204.2L209.63,204.2L209.63,204.2z M176.38,173.19L176.38,173.19
				L176.38,173.19L176.38,173.19L176.38,173.19c-2.09,0-3.98,0.85-5.35,2.22c-1.38,1.38-2.23,3.26-2.23,5.35h0.01v0v0.01h-0.01
				c0,2.09,0.85,3.98,2.22,5.36c1.37,1.37,3.26,2.22,5.35,2.22v-0.01h0h0v0.01c2.08,0,3.98-0.85,5.35-2.22l-0.01,0
				c1.38-1.38,2.23-3.27,2.23-5.35h-0.01v0v0h0.01c0-2.08-0.85-3.97-2.23-5.35C180.35,174.04,178.45,173.19,176.38,173.19z
				 M176.37,168.31L176.37,168.31l0,0.01c3.44,0,6.55,1.39,8.8,3.64c2.24,2.24,3.64,5.36,3.64,8.8h0.01v0v0h-0.01
				c0,3.44-1.39,6.55-3.64,8.8h-0.01c-2.25,2.24-5.35,3.63-8.79,3.63v0.01h0h0v-0.01c-3.44,0-6.55-1.39-8.8-3.65
				c-2.25-2.25-3.64-5.36-3.64-8.79h-0.01v-0.01v0h0.01c0-3.44,1.39-6.55,3.64-8.8c2.25-2.24,5.36-3.63,8.8-3.63L176.37,168.31
				L176.37,168.31z M47,204.18L47,204.18L47,204.18L47,204.18L47,204.18c2.67,0,5.07,1.08,6.81,2.81c1.75,1.75,2.83,4.16,2.83,6.82
				h0.01v0h-0.01c0,2.66-1.08,5.07-2.81,6.81c-1.74,1.75-4.16,2.83-6.82,2.83v0.01h-0.01v-0.01c-2.67,0-5.07-1.08-6.82-2.82l0.01,0
				c-1.75-1.75-2.82-4.15-2.82-6.82h-0.01v-0.01h0.01c0-2.66,1.08-5.07,2.82-6.81C41.92,205.25,44.33,204.18,47,204.18z M47,209.05
				L47,209.05l0-0.01c-1.32,0-2.51,0.53-3.37,1.4c-0.87,0.87-1.4,2.06-1.4,3.37h0.01v0.01h-0.01c0,1.32,0.53,2.51,1.39,3.37h0.01
				c0.87,0.87,2.06,1.41,3.36,1.41v-0.01H47v0.01c1.32,0,2.51-0.53,3.37-1.4c0.87-0.87,1.4-2.06,1.4-3.37h-0.01v0h0.01
				c0-1.31-0.53-2.51-1.39-3.37c-0.87-0.87-2.06-1.41-3.37-1.41L47,209.05L47,209.05z M121.38,239.32L121.38,239.32L121.38,239.32
				l0.02,0c1.88-1.88,4.35-2.82,6.81-2.82c2.46,0,4.93,0.94,6.81,2.83h0.01l0,0v0c1.88,1.89,2.82,4.35,2.82,6.81
				c0,2.46-0.94,4.93-2.82,6.81v0.01l0,0l0,0.01h-0.01c-1.88,1.88-4.35,2.82-6.81,2.82c-2.46,0-4.93-0.94-6.81-2.82h-0.01v0l0,0
				v-0.01c-1.88-1.88-2.82-4.35-2.82-6.81C118.55,243.68,119.5,241.22,121.38,239.32L121.38,239.32z M124.83,242.77L124.83,242.77
				L124.83,242.77c-0.93,0.92-1.39,2.14-1.39,3.37c0,1.22,0.46,2.44,1.39,3.37l0-0.01l0,0.01l0,0l0,0c0.92,0.92,2.15,1.39,3.37,1.39
				c1.22,0,2.44-0.47,3.37-1.38l-0.01-0.01l0.01,0v0l0,0.01c0.93-0.93,1.39-2.15,1.39-3.37c0-1.22-0.46-2.44-1.39-3.37l-0.01,0l0,0
				l0,0l0.01,0c-0.93-0.93-2.15-1.39-3.37-1.39c-1.22,0-2.45,0.46-3.37,1.39V242.77L124.83,242.77z M119.4,183.34L119.4,183.34
				c3.5-3.5,8.56-4.48,12.93-2.94c0.87,0.3,1.69,0.7,2.47,1.18c0.77,0.48,1.51,1.07,2.2,1.75H137l0,0c3.49,3.5,4.47,8.56,2.94,12.93
				c-0.3,0.87-0.7,1.69-1.18,2.47h-0.01c-0.5,0.79-1.08,1.53-1.74,2.2v0.01v0H137c-3.5,3.49-8.55,4.47-12.92,2.94
				c-0.84-0.3-1.67-0.69-2.46-1.19c-0.8-0.5-1.54-1.08-2.2-1.75h-0.01l0,0v-0.01c-3.5-3.49-4.47-8.55-2.94-12.92
				c0.3-0.84,0.7-1.67,1.19-2.46l-0.01-0.01c0.49-0.78,1.07-1.52,1.76-2.2V183.34z M122.85,186.79L122.85,186.79L122.85,186.79
				c-0.41,0.4-0.77,0.86-1.07,1.33h-0.01c-0.29,0.46-0.53,0.97-0.71,1.49c-0.93,2.67-0.34,5.75,1.79,7.88l0,0l0,0.01
				c0.43,0.43,0.88,0.78,1.34,1.07c0.46,0.29,0.96,0.53,1.49,0.71c2.66,0.94,5.75,0.34,7.88-1.79l0,0l0,0l0,0h0
				c0.42-0.43,0.78-0.87,1.07-1.33l-0.01-0.01c0.31-0.49,0.55-0.99,0.72-1.49c0.94-2.66,0.34-5.74-1.79-7.87v0l0-0.01
				c-0.41-0.41-0.86-0.77-1.34-1.07c-0.49-0.3-0.99-0.54-1.49-0.72C128.07,184.06,124.98,184.66,122.85,186.79z M80.03,168.33v-0.01
				h0L80.03,168.33c3.45,0,6.56,1.39,8.8,3.63c2.25,2.25,3.64,5.36,3.64,8.8h0.01v0v0.01h-0.01c0,3.43-1.39,6.54-3.63,8.79v0.01
				c-2.25,2.25-5.36,3.64-8.81,3.64v0.01h0h0v-0.01c-3.44,0-6.55-1.39-8.8-3.63c-2.25-2.25-3.64-5.36-3.64-8.8h-0.01v0v0h0.01
				c0-3.44,1.39-6.55,3.64-8.8C73.47,169.71,76.59,168.33,80.03,168.33z M80.03,173.19L80.03,173.19L80.03,173.19
				c-2.09,0-3.97,0.85-5.35,2.22c-1.37,1.38-2.22,3.26-2.22,5.35h0.01v0v0h-0.01c0,2.08,0.85,3.97,2.23,5.35
				c1.38,1.37,3.26,2.23,5.35,2.23v-0.01h0h0v0.01c2.08,0,3.98-0.86,5.35-2.23l0,0c1.37-1.37,2.22-3.26,2.22-5.35H87.6v-0.01v0h0.01
				c0-2.08-0.85-3.97-2.23-5.35C84.01,174.04,82.12,173.19,80.03,173.19L80.03,173.19L80.03,173.19z"/>
		</g>
		<g>
			<g>
				<g>
					<path class="st2" d="M346.31,162.99l-9.87-50.58l-9.97,50.58h-24.52l-12.62-70.2h20.14l6.1,46.62l8.95-46.62h23.81l8.95,46.62
						l6.1-46.62h20.14l-12.61,70.2H346.31z"/>
					<path class="st2" d="M403.48,103.99h22.23l15.9,59h-17.36l-2.74-11.95h-13.85l-2.65,11.95h-17.44L403.48,103.99z M414.6,120.63
						l-4.1,18h8.21L414.6,120.63z"/>
					<path class="st2" d="M503.7,135c0,10.19-2.18,17.4-6.54,21.63c-4.36,4.24-11.79,6.35-22.27,6.35H453.5v-59h21.38
						c10.49,0,17.92,2.12,22.27,6.35c4.36,4.24,6.54,11.45,6.54,21.63V135z M469.75,150.59h4.28c5.24,0,8.75-1.21,10.52-3.63
						c1.77-2.42,2.65-6.41,2.65-11.95v-3.03c0-5.55-0.88-9.53-2.65-11.95c-1.77-2.42-5.27-3.63-10.52-3.63h-4.28V150.59z"/>
					<path class="st2" d="M550.13,103.99h16.25v59h-16.25v-23.9h-16.25v23.9h-16.25v-59h16.25v22.69h16.25V103.99z"/>
					<path class="st2" d="M626.41,162.99l-8.29-42.51l-8.38,42.51h-20.61l-10.6-59h16.93l5.13,39.18l7.52-39.18h20.01l7.52,39.18
						l5.13-39.18h16.93l-10.6,59H626.41z"/>
					<path class="st2" d="M678.74,103.99h22.23l15.9,59h-17.36l-2.74-11.95h-13.85l-2.65,11.95h-17.45L678.74,103.99z
						 M689.86,120.63l-4.1,18h8.21L689.86,120.63z"/>
					<path class="st2" d="M779.22,103.99v59h-17.1l-18.39-32.53l0.43,11.35v21.18h-15.39v-59h17.1l18.39,32.53l-0.43-11.35v-21.18
						H779.22z"/>
					<path class="st2" d="M811.29,103.99v59h-16.25v-59H811.29z"/>
					<path class="st2" d="M869.93,92.79h26.45l18.92,70.2h-20.65l-3.26-14.22h-16.48l-3.15,14.22h-20.76L869.93,92.79z
						 M883.16,112.59l-4.88,21.42h9.77L883.16,112.59z"/>
					<path class="st2" d="M945.22,92.79v70.2h-19.33v-70.2H945.22z"/>
				</g>
			</g>
		</g>
	</g>
</g>
</svg>
