<?xml version="1.0" standalone="no"?>
<!DOCTYPE svg PUBLIC "-//W3C//DTD SVG 20010904//EN"
 "http://www.w3.org/TR/2001/REC-SVG-20010904/DTD/svg10.dtd">
<svg version="1.0" xmlns="http://www.w3.org/2000/svg"
 width="1752.000000pt" height="1752.000000pt" viewBox="0 0 1752.000000 1752.000000"
 preserveAspectRatio="xMidYMid meet">
<metadata>
Created by potrace 1.11, written by Peter Selinger 2001-2013
</metadata>
<g transform="translate(0.000000,1752.000000) scale(0.100000,-0.100000)"
fill="#000000" stroke="none">
<path d="M9890 15144 c-25 -3 -142 -13 -261 -24 -871 -79 -1785 -359 -2559
-783 -226 -124 -262 -147 -257 -166 4 -15 6483 -11600 6492 -11610 11 -11 358
188 594 342 856 555 1583 1314 2108 2201 529 891 843 1915 913 2970 21 326 11
773 -26 1131 -109 1067 -500 2133 -1112 3030 -1054 1545 -2689 2573 -4527
2845 -334 50 -503 61 -920 65 -220 1 -420 1 -445 -1z"/>
<path d="M6257 13872 c-3 -9 -20 -42 -38 -72 -17 -30 -47 -84 -67 -120 -19
-36 -50 -92 -68 -125 -18 -33 -44 -80 -57 -105 -24 -46 -142 -263 -182 -335
-12 -22 -35 -65 -52 -95 -17 -30 -74 -136 -127 -235 -53 -99 -102 -189 -108
-200 -18 -31 -149 -270 -203 -370 -26 -49 -58 -108 -70 -130 -12 -22 -66 -121
-120 -220 -54 -99 -123 -227 -155 -285 -91 -166 -152 -279 -225 -415 -27 -49
-56 -103 -66 -120 -10 -16 -31 -55 -47 -85 -16 -30 -44 -82 -62 -115 -18 -33
-47 -87 -65 -120 -18 -33 -53 -98 -79 -144 -25 -46 -46 -85 -46 -87 0 -1 -15
-29 -34 -61 -18 -32 -55 -98 -81 -148 -27 -49 -56 -104 -66 -122 -10 -18 -35
-63 -55 -100 -20 -37 -60 -111 -89 -163 -29 -52 -76 -140 -105 -195 -29 -55
-56 -104 -60 -110 -4 -5 -28 -48 -53 -95 -24 -47 -56 -105 -69 -130 -42 -75
-83 -151 -123 -225 -21 -38 -61 -113 -90 -165 -29 -52 -69 -126 -90 -165 -20
-38 -50 -94 -66 -122 -16 -29 -42 -77 -58 -105 -15 -29 -57 -105 -91 -168
-121 -222 -134 -245 -166 -305 -32 -58 -77 -142 -116 -215 -10 -19 -29 -53
-41 -75 -13 -22 -45 -80 -72 -130 -26 -49 -58 -108 -70 -130 -23 -41 -63 -114
-119 -220 -39 -73 -77 -140 -145 -263 -28 -50 -51 -94 -51 -97 0 -2 -13 -26
-28 -52 -16 -27 -51 -91 -79 -143 -28 -52 -101 -187 -163 -300 -114 -209 -140
-256 -225 -415 -26 -49 -51 -94 -55 -100 -4 -5 -31 -55 -60 -110 -29 -55 -70
-130 -91 -167 -22 -36 -39 -68 -39 -70 0 -3 -26 -51 -58 -109 -32 -57 -82
-148 -111 -203 -29 -54 -61 -112 -70 -130 -10 -17 -38 -67 -61 -111 -89 -164
-101 -187 -114 -208 -7 -12 -35 -62 -61 -112 -85 -159 -107 -199 -135 -250
-36 -64 -79 -144 -120 -220 -18 -33 -45 -82 -60 -110 -15 -27 -42 -77 -60
-110 -18 -33 -45 -82 -60 -110 -15 -27 -44 -81 -65 -120 -79 -146 -194 -358
-242 -445 -17 -30 -48 -86 -68 -125 -21 -38 -51 -94 -66 -122 -16 -29 -42 -78
-59 -108 -16 -30 -43 -79 -59 -107 -103 -190 -222 -410 -242 -448 -12 -25 -28
-52 -34 -60 -7 -8 -15 -23 -18 -33 -6 -16 41 -17 934 -15 l941 3 23 41 c13 23
41 75 63 116 22 41 46 85 54 99 15 23 173 314 213 391 20 39 204 378 235 433
9 17 34 62 55 100 20 39 50 94 66 123 48 87 84 153 124 227 21 39 41 75 45 80
4 6 31 55 60 110 30 55 78 145 108 200 30 55 73 134 95 175 22 41 47 89 57
105 10 17 37 66 60 110 24 44 53 98 65 120 73 133 389 713 425 780 24 44 53
98 65 120 13 22 37 67 55 100 18 33 73 134 122 225 137 251 148 270 185 340
48 88 124 229 143 262 8 15 29 53 46 85 17 32 45 84 62 116 18 31 46 83 64
115 17 31 44 82 61 112 94 174 139 257 147 270 5 8 26 47 46 85 20 39 44 84
54 100 9 17 32 57 50 90 18 33 130 240 250 460 235 433 265 486 318 585 19 36
56 103 82 150 26 47 66 121 90 165 24 44 62 114 84 155 23 41 48 89 56 105 8
17 19 35 23 40 5 6 21 33 35 62 50 96 303 562 322 593 5 8 20 35 33 60 44 84
121 225 138 255 17 29 70 126 116 215 13 25 32 59 42 75 9 17 38 68 63 115 25
47 68 127 97 178 28 50 51 94 51 97 0 3 10 22 23 43 13 20 46 80 74 132 28 52
62 115 75 140 14 25 56 101 93 170 37 69 78 144 92 167 13 24 22 44 21 45 -2
2 6 17 18 33 11 17 44 74 73 128 29 54 88 164 132 243 43 80 79 146 79 148 0
2 -112 209 -192 355 -17 31 -45 83 -63 116 -18 33 -44 81 -59 108 -14 26 -110
201 -212 390 -184 337 -224 410 -270 495 -13 24 -49 90 -80 147 -31 58 -59
107 -64 110 -4 3 -10 -3 -13 -13z"/>
<path d="M7475 11548 c-15 -29 -49 -92 -76 -139 -26 -47 -71 -131 -100 -185
-29 -54 -69 -130 -91 -167 -21 -38 -38 -73 -38 -77 0 -5 -3 -10 -7 -12 -5 -1
-18 -23 -31 -48 -12 -25 -38 -74 -58 -110 -20 -36 -54 -99 -76 -140 -22 -41
-44 -79 -48 -85 -4 -5 -30 -54 -59 -107 -28 -54 -62 -117 -75 -140 -82 -150
-148 -272 -178 -328 -19 -36 -46 -85 -60 -110 -32 -57 -95 -173 -123 -225 -21
-39 -64 -118 -131 -240 -18 -33 -44 -80 -57 -105 -13 -25 -38 -72 -56 -103
-43 -78 -82 -150 -123 -227 -76 -139 -101 -186 -123 -225 -12 -22 -39 -71 -60
-110 -21 -38 -49 -90 -63 -115 -13 -25 -39 -72 -57 -105 -18 -33 -74 -135
-124 -227 -50 -92 -91 -172 -91 -178 0 -5 -3 -10 -7 -10 -5 0 -13 -10 -19 -23
-16 -34 -116 -221 -124 -232 -4 -5 -30 -53 -58 -105 -27 -52 -73 -138 -102
-190 -49 -89 -69 -127 -150 -275 -18 -33 -45 -82 -60 -110 -15 -27 -41 -76
-59 -107 -17 -32 -44 -82 -60 -110 -16 -29 -72 -134 -126 -233 -54 -99 -110
-202 -125 -230 -15 -27 -66 -122 -114 -210 -48 -88 -91 -167 -96 -175 -5 -8
-22 -40 -38 -70 -16 -30 -54 -100 -84 -155 -30 -55 -72 -131 -93 -170 -21 -38
-45 -83 -55 -100 -10 -16 -33 -59 -52 -95 -65 -121 -171 -315 -201 -370 -43
-76 -93 -168 -115 -210 -32 -62 -104 -193 -149 -272 -23 -43 -43 -79 -43 -81
0 -2 -26 -50 -58 -108 -32 -57 -84 -153 -116 -214 -32 -60 -62 -114 -66 -120
-4 -5 -25 -44 -48 -85 -147 -275 -172 -321 -192 -355 -16 -28 -34 -61 -120
-220 -18 -33 -45 -82 -60 -110 -70 -129 -183 -335 -250 -460 -18 -33 -45 -82
-60 -110 -15 -27 -41 -76 -59 -107 -43 -80 -91 -167 -113 -206 -10 -18 -18
-35 -18 -37 0 -3 424 -4 942 -3 l943 3 73 135 c40 74 90 167 111 205 69 127
114 209 139 255 14 25 41 74 60 110 34 64 191 352 240 440 31 57 59 108 217
400 70 129 141 260 158 290 16 30 48 89 70 130 23 41 51 93 63 115 23 42 45
82 122 225 25 47 53 99 63 115 10 17 28 50 41 75 29 55 104 192 130 238 10 19
39 73 65 120 25 48 53 101 63 117 10 17 33 59 53 95 19 36 48 90 64 120 61
111 217 397 251 460 40 74 76 141 119 220 37 67 257 470 305 560 56 102 98
181 128 235 92 169 153 281 195 360 26 50 51 95 55 100 4 6 28 48 53 95 24 47
56 105 69 130 57 103 148 270 188 345 23 44 50 94 60 110 10 17 34 60 54 98
20 37 51 95 70 130 18 34 88 163 155 287 67 124 126 232 131 240 10 17 157
287 215 395 21 39 55 101 76 138 22 38 39 73 39 78 0 5 5 9 10 9 6 0 10 8 10
18 0 10 4 22 9 28 6 5 44 71 85 147 l74 137 -30 58 c-17 31 -43 80 -58 107
-15 28 -44 79 -63 115 -43 81 -158 293 -184 340 -11 19 -41 76 -68 125 -26 50
-62 115 -80 145 -17 30 -41 75 -54 100 -12 25 -32 63 -45 85 -44 80 -129 235
-196 360 -24 44 -62 114 -84 155 -23 41 -47 87 -55 103 -8 15 -18 27 -22 27
-4 0 -19 -24 -34 -52z"/>
<path d="M8734 9303 c-11 -18 -38 -68 -106 -193 -84 -154 -97 -177 -120 -220
-14 -25 -41 -74 -60 -110 -20 -36 -46 -85 -60 -110 -33 -59 -87 -158 -133
-245 -21 -38 -50 -92 -65 -120 -117 -213 -270 -493 -303 -555 -22 -41 -63
-118 -92 -170 -29 -52 -69 -126 -90 -165 -68 -128 -108 -199 -141 -258 -19
-32 -34 -60 -34 -63 0 -2 -22 -43 -48 -91 -27 -49 -65 -117 -84 -153 -20 -36
-47 -85 -60 -110 -14 -25 -43 -79 -66 -120 -145 -269 -164 -305 -182 -335 -9
-16 -33 -59 -52 -95 -19 -36 -79 -146 -133 -245 -53 -99 -113 -209 -132 -245
-39 -71 -64 -117 -140 -255 -27 -49 -74 -135 -103 -190 -29 -55 -56 -104 -60
-110 -6 -8 -204 -375 -262 -485 -10 -19 -27 -48 -37 -65 -10 -16 -44 -79 -76
-140 -32 -60 -61 -114 -65 -120 -4 -5 -25 -43 -46 -83 -40 -75 -45 -84 -125
-232 -26 -47 -61 -112 -79 -145 -18 -33 -44 -80 -58 -105 -13 -25 -40 -74 -60
-110 -19 -36 -60 -112 -92 -170 -31 -58 -77 -141 -100 -185 -24 -44 -62 -114
-85 -155 -23 -41 -45 -85 -49 -97 -4 -13 -12 -23 -17 -23 -5 0 -9 -4 -9 -8 0
-5 -23 -51 -51 -103 -28 -52 -69 -128 -91 -169 -23 -41 -52 -95 -66 -120 -14
-25 -41 -74 -60 -110 -19 -36 -45 -84 -59 -107 l-25 -43 1289 0 1288 0 0 962
0 963 1210 0 1210 0 2 -950 c1 -523 2 -956 2 -962 1 -10 265 -13 1286 -13 707
0 1285 3 1285 8 0 4 -6 16 -13 27 -8 11 -35 61 -62 110 -27 50 -56 104 -66
122 -22 38 -62 113 -154 283 -37 69 -79 145 -93 170 -13 25 -40 74 -60 110
-48 90 -461 847 -482 885 -9 16 -29 55 -45 85 -16 30 -36 63 -44 73 -8 9 -11
17 -6 17 4 0 3 6 -3 13 -8 10 -156 279 -410 747 -19 36 -55 100 -79 144 -24
43 -43 80 -43 82 0 2 -13 25 -28 51 -16 26 -55 98 -87 158 -32 61 -73 136 -91
168 -19 32 -34 60 -34 61 0 2 -20 39 -43 82 -44 79 -81 148 -152 279 -21 39
-49 90 -63 115 -13 25 -40 74 -60 110 -19 36 -46 85 -60 110 -14 25 -36 65
-49 90 -33 63 -71 132 -119 220 -23 41 -99 181 -169 310 -70 129 -139 255
-153 280 -13 25 -40 74 -60 110 -42 78 -144 266 -182 335 -41 75 -82 150 -135
250 -26 50 -55 104 -65 120 -17 30 -46 81 -112 205 -20 36 -76 139 -126 230
-49 91 -104 192 -122 225 -18 33 -51 94 -74 135 -23 42 -84 155 -136 253 -52
97 -97 177 -100 177 -3 0 -10 -8 -16 -17z m211 -2118 c91 -19 198 -50 255 -72
224 -89 427 -254 561 -458 238 -360 269 -808 82 -1194 -92 -192 -237 -361
-403 -471 -41 -28 -79 -53 -85 -58 -34 -25 -211 -97 -290 -117 -132 -34 -214
-43 -340 -40 -135 4 -174 9 -295 42 -334 90 -620 329 -772 643 -50 103 -93
239 -104 329 -2 20 -6 47 -9 61 -8 38 -8 217 0 275 40 290 160 534 359 728
187 181 383 278 676 335 49 10 317 8 365 -3z"/>
</g>
</svg>
